<ttFont>
<head>
    <!-- Most of this table will be recalculated by the compiler -->
    <tableVersion value="1.0"/>
    <fontRevision value="1.0"/>
    <checkSumAdjustment value="0xfc038cfc"/>
    <magicNumber value="0x5f0f3cf5"/>
    <flags value="00000000 00000011"/>
    <unitsPerEm value="1000"/>
    <created value="Sat Aug  4 19:29:08 2018"/>
    <modified value="Sat Sep 22 16:17:35 2018"/>
    <xMin value="-180"/>
    <yMin value="-249"/>
    <xMax value="653"/>
    <yMax value="877"/>
    <macStyle value="00000000 00000000"/>
    <lowestRecPPEM value="3"/>
    <fontDirectionHint value="2"/>
    <indexToLocFormat value="0"/>
    <glyphDataFormat value="0"/>
  </head>
    <TTGlyph name=".notdef" xMin="0" yMin="0" xMax="500" yMax="700">
      <contour>
        <pt x="0" y="0" on="1"/>
        <pt x="0" y="700" on="1"/>
        <pt x="500" y="700" on="1"/>
        <pt x="500" y="0" on="1"/>
      </contour>
      <contour>
        <pt x="250" y="395" on="1"/>
        <pt x="420" y="650" on="1"/>
        <pt x="80" y="650" on="1"/>
      </contour>
      <contour>
        <pt x="280" y="350" on="1"/>
        <pt x="450" y="95" on="1"/>
        <pt x="450" y="605" on="1"/>
      </contour>
      <contour>
        <pt x="80" y="50" on="1"/>
        <pt x="420" y="50" on="1"/>
        <pt x="250" y="305" on="1"/>
      </contour>
      <contour>
        <pt x="50" y="605" on="1"/>
        <pt x="50" y="95" on="1"/>
        <pt x="220" y="350" on="1"/>
      </contour>
    </TTGlyph>
    <TTGlyph name="cid00001" xMin="5" yMin="0" xMax="653" yMax="674">
      <contour>
        <pt x="5" y="0" on="1"/>
        <pt x="5" y="41" on="1"/>
        <pt x="89" y="53" on="1"/>
        <pt x="302" y="674" on="1"/>
        <pt x="365" y="674" on="1"/>
        <pt x="578" y="50" on="1"/>
        <pt x="653" y="41" on="1"/>
        <pt x="653" y="0" on="1"/>
        <pt x="381" y="0" on="1"/>
        <pt x="381" y="41" on="1"/>
        <pt x="480" y="52" on="1"/>
        <pt x="424" y="217" on="1"/>
        <pt x="192" y="217" on="1"/>
        <pt x="137" y="54" on="1"/>
        <pt x="234" y="41" on="1"/>
        <pt x="234" y="0" on="1"/>
      </contour>
      <contour>
        <pt x="208" y="264" on="1"/>
        <pt x="409" y="264" on="1"/>
        <pt x="309" y="562" on="1"/>
      </contour>
    </TTGlyph>
    <TTGlyph name="cid00002" xMin="15" yMin="0" xMax="623" yMax="669">
      <contour>
        <pt x="394" y="628" on="1"/>
        <pt x="394" y="669" on="1"/>
        <pt x="623" y="669" on="1"/>
        <pt x="623" y="628" on="1"/>
        <pt x="535" y="615" on="1"/>
        <pt x="365" y="264" on="1"/>
        <pt x="365" y="205" on="0"/>
        <pt x="366" y="100" on="0"/>
        <pt x="367" y="52" on="1"/>
        <pt x="469" y="41" on="1"/>
        <pt x="469" y="0" on="1"/>
        <pt x="167" y="0" on="1"/>
        <pt x="167" y="41" on="1"/>
        <pt x="269" y="52" on="1"/>
        <pt x="270" y="99" on="0"/>
        <pt x="271" y="201" on="0"/>
        <pt x="271" y="259" on="1"/>
        <pt x="93" y="619" on="1"/>
        <pt x="15" y="628" on="1"/>
        <pt x="15" y="669" on="1"/>
        <pt x="297" y="669" on="1"/>
        <pt x="297" y="628" on="1"/>
        <pt x="202" y="617" on="1"/>
        <pt x="341" y="315" on="1"/>
        <pt x="484" y="616" on="1"/>
      </contour>
    </TTGlyph>
    <TTGlyph name="cid00003" xMin="45" yMin="-13" xMax="503" yMax="488">
      <contour>
        <pt x="45" y="112" on="1"/>
        <pt x="45" y="141" on="0"/>
        <pt x="72" y="191" on="0"/>
        <pt x="144" y="239" on="0"/>
        <pt x="211" y="263" on="1"/>
        <pt x="234" y="271" on="0"/>
        <pt x="294" y="289" on="0"/>
        <pt x="324" y="296" on="1"/>
        <pt x="324" y="321" on="1"/>
        <pt x="324" y="394" on="0"/>
        <pt x="280" y="442" on="0"/>
        <pt x="230" y="442" on="1"/>
        <pt x="219" y="442" on="0"/>
        <pt x="192" y="440" on="0"/>
        <pt x="176" y="436" on="1"/>
        <pt x="157" y="371" on="1"/>
        <pt x="143" y="323" on="0"/>
        <pt x="105" y="323" on="1"/>
        <pt x="63" y="323" on="0"/>
        <pt x="58" y="364" on="1"/>
        <pt x="72" y="421" on="0"/>
        <pt x="177" y="488" on="0"/>
        <pt x="253" y="488" on="1"/>
        <pt x="332" y="488" on="0"/>
        <pt x="408" y="409" on="0"/>
        <pt x="408" y="314" on="1"/>
        <pt x="408" y="101" on="1"/>
        <pt x="408" y="69" on="0"/>
        <pt x="428" y="42" on="0"/>
        <pt x="444" y="42" on="1"/>
        <pt x="457" y="42" on="0"/>
        <pt x="475" y="54" on="0"/>
        <pt x="483" y="64" on="1"/>
        <pt x="503" y="42" on="1"/>
        <pt x="485" y="13" on="0"/>
        <pt x="442" y="-10" on="0"/>
        <pt x="416" y="-10" on="1"/>
        <pt x="380" y="-10" on="0"/>
        <pt x="333" y="31" on="0"/>
        <pt x="326" y="67" on="1"/>
        <pt x="285" y="27" on="0"/>
        <pt x="223" y="-13" on="0"/>
        <pt x="179" y="-13" on="1"/>
        <pt x="124" y="-13" on="0"/>
        <pt x="45" y="50" on="0"/>
      </contour>
      <contour>
        <pt x="134" y="127" on="1"/>
        <pt x="134" y="87" on="0"/>
        <pt x="180" y="53" on="0"/>
        <pt x="214" y="53" on="1"/>
        <pt x="231" y="53" on="0"/>
        <pt x="259" y="62" on="0"/>
        <pt x="296" y="86" on="0"/>
        <pt x="324" y="106" on="1"/>
        <pt x="324" y="258" on="1"/>
        <pt x="298" y="251" on="0"/>
        <pt x="248" y="235" on="0"/>
        <pt x="232" y="229" on="1"/>
        <pt x="189" y="212" on="0"/>
        <pt x="147" y="176" on="0"/>
        <pt x="134" y="142" on="0"/>
      </contour>
    </TTGlyph>
    <TTGlyph name="cid00004" xMin="0" yMin="-249" xMax="512" yMax="475">
      <contour>
        <pt x="92" y="-249" on="1"/>
        <pt x="55" y="-249" on="0"/>
        <pt x="0" y="-212" on="0"/>
        <pt x="0" y="-183" on="1"/>
        <pt x="5" y="-161" on="0"/>
        <pt x="44" y="-139" on="0"/>
        <pt x="67" y="-139" on="1"/>
        <pt x="87" y="-139" on="0"/>
        <pt x="121" y="-156" on="0"/>
        <pt x="141" y="-177" on="1"/>
        <pt x="146" y="-182" on="1"/>
        <pt x="178" y="-155" on="0"/>
        <pt x="222" y="-78" on="0"/>
        <pt x="236" y="-38" on="1"/>
        <pt x="241" y="-26" on="1"/>
        <pt x="58" y="431" on="1"/>
        <pt x="4" y="439" on="1"/>
        <pt x="4" y="475" on="1"/>
        <pt x="244" y="475" on="1"/>
        <pt x="244" y="438" on="1"/>
        <pt x="156" y="428" on="1"/>
        <pt x="281" y="87" on="1"/>
        <pt x="404" y="427" on="1"/>
        <pt x="317" y="439" on="1"/>
        <pt x="317" y="475" on="1"/>
        <pt x="512" y="475" on="1"/>
        <pt x="512" y="439" on="1"/>
        <pt x="458" y="428" on="1"/>
        <pt x="297" y="3" on="1"/>
        <pt x="247" y="-130" on="0"/>
        <pt x="154" y="-249" on="0"/>
      </contour>
    </TTGlyph>
    <TTGlyph name="cid00005" xMin="5" yMin="0" xMax="653" yMax="877">
      <contour>
        <pt x="5" y="0" on="1"/>
        <pt x="5" y="41" on="1"/>
        <pt x="89" y="53" on="1"/>
        <pt x="302" y="674" on="1"/>
        <pt x="365" y="674" on="1"/>
        <pt x="578" y="50" on="1"/>
        <pt x="653" y="41" on="1"/>
        <pt x="653" y="0" on="1"/>
        <pt x="381" y="0" on="1"/>
        <pt x="381" y="41" on="1"/>
        <pt x="480" y="52" on="1"/>
        <pt x="424" y="217" on="1"/>
        <pt x="192" y="217" on="1"/>
        <pt x="137" y="54" on="1"/>
        <pt x="234" y="41" on="1"/>
        <pt x="234" y="0" on="1"/>
      </contour>
      <contour>
        <pt x="208" y="264" on="1"/>
        <pt x="409" y="264" on="1"/>
        <pt x="309" y="562" on="1"/>
      </contour>
      <contour>
        <pt x="266" y="745" on="1"/>
        <pt x="312" y="794" on="0"/>
        <pt x="360" y="839" on="1"/>
        <pt x="381" y="860" on="0"/>
        <pt x="409" y="877" on="0"/>
        <pt x="422" y="877" on="1"/>
        <pt x="438" y="877" on="0"/>
        <pt x="460" y="858" on="0"/>
        <pt x="460" y="843" on="1"/>
        <pt x="460" y="830" on="0"/>
        <pt x="439" y="804" on="0"/>
        <pt x="410" y="788" on="1"/>
        <pt x="379" y="771" on="0"/>
        <pt x="316" y="737" on="0"/>
        <pt x="284" y="720" on="1"/>
      </contour>
    </TTGlyph>
    <TTGlyph name="cid00006" xMin="5" yMin="0" xMax="653" yMax="854">
      <contour>
        <pt x="5" y="0" on="1"/>
        <pt x="5" y="41" on="1"/>
        <pt x="89" y="53" on="1"/>
        <pt x="302" y="674" on="1"/>
        <pt x="365" y="674" on="1"/>
        <pt x="578" y="50" on="1"/>
        <pt x="653" y="41" on="1"/>
        <pt x="653" y="0" on="1"/>
        <pt x="381" y="0" on="1"/>
        <pt x="381" y="41" on="1"/>
        <pt x="480" y="52" on="1"/>
        <pt x="424" y="217" on="1"/>
        <pt x="192" y="217" on="1"/>
        <pt x="137" y="54" on="1"/>
        <pt x="234" y="41" on="1"/>
        <pt x="234" y="0" on="1"/>
      </contour>
      <contour>
        <pt x="208" y="264" on="1"/>
        <pt x="409" y="264" on="1"/>
        <pt x="309" y="562" on="1"/>
      </contour>
      <contour>
        <pt x="220" y="744" on="1"/>
        <pt x="197" y="744" on="0"/>
        <pt x="162" y="775" on="0"/>
        <pt x="162" y="799" on="1"/>
        <pt x="162" y="823" on="0"/>
        <pt x="197" y="854" on="0"/>
        <pt x="220" y="854" on="1"/>
        <pt x="244" y="854" on="0"/>
        <pt x="277" y="823" on="0"/>
        <pt x="277" y="799" on="1"/>
        <pt x="277" y="775" on="0"/>
        <pt x="244" y="744" on="0"/>
      </contour>
      <contour>
        <pt x="443" y="744" on="1"/>
        <pt x="419" y="744" on="0"/>
        <pt x="386" y="775" on="0"/>
        <pt x="386" y="799" on="1"/>
        <pt x="386" y="823" on="0"/>
        <pt x="419" y="854" on="0"/>
        <pt x="443" y="854" on="1"/>
        <pt x="466" y="854" on="0"/>
        <pt x="501" y="823" on="0"/>
        <pt x="501" y="799" on="1"/>
        <pt x="501" y="775" on="0"/>
        <pt x="466" y="744" on="0"/>
      </contour>
    </TTGlyph>
    <TTGlyph name="cid00007" xMin="5" yMin="0" xMax="653" yMax="863">
      <contour>
        <pt x="5" y="0" on="1"/>
        <pt x="5" y="41" on="1"/>
        <pt x="89" y="53" on="1"/>
        <pt x="302" y="674" on="1"/>
        <pt x="365" y="674" on="1"/>
        <pt x="578" y="50" on="1"/>
        <pt x="653" y="41" on="1"/>
        <pt x="653" y="0" on="1"/>
        <pt x="381" y="0" on="1"/>
        <pt x="381" y="41" on="1"/>
        <pt x="480" y="52" on="1"/>
        <pt x="424" y="217" on="1"/>
        <pt x="192" y="217" on="1"/>
        <pt x="137" y="54" on="1"/>
        <pt x="234" y="41" on="1"/>
        <pt x="234" y="0" on="1"/>
      </contour>
      <contour>
        <pt x="208" y="264" on="1"/>
        <pt x="409" y="264" on="1"/>
        <pt x="309" y="562" on="1"/>
      </contour>
      <contour>
        <pt x="151" y="734" on="1"/>
        <pt x="160" y="793" on="0"/>
        <pt x="210" y="863" on="0"/>
        <pt x="256" y="863" on="1"/>
        <pt x="283" y="863" on="0"/>
        <pt x="320" y="843" on="0"/>
        <pt x="337" y="829" on="1"/>
        <pt x="356" y="814" on="0"/>
        <pt x="391" y="781" on="0"/>
        <pt x="413" y="781" on="1"/>
        <pt x="438" y="781" on="0"/>
        <pt x="470" y="824" on="0"/>
        <pt x="481" y="861" on="1"/>
        <pt x="511" y="851" on="1"/>
        <pt x="501" y="793" on="0"/>
        <pt x="453" y="723" on="0"/>
        <pt x="407" y="723" on="1"/>
        <pt x="379" y="723" on="0"/>
        <pt x="342" y="743" on="0"/>
        <pt x="325" y="756" on="1"/>
        <pt x="306" y="772" on="0"/>
        <pt x="272" y="804" on="0"/>
        <pt x="249" y="804" on="1"/>
        <pt x="225" y="804" on="0"/>
        <pt x="192" y="762" on="0"/>
        <pt x="181" y="725" on="1"/>
      </contour>
    </TTGlyph>
    <TTGlyph name="cid00008" xMin="15" yMin="0" xMax="623" yMax="867">
      <contour>
        <pt x="394" y="628" on="1"/>
        <pt x="394" y="669" on="1"/>
        <pt x="623" y="669" on="1"/>
        <pt x="623" y="628" on="1"/>
        <pt x="535" y="615" on="1"/>
        <pt x="365" y="264" on="1"/>
        <pt x="365" y="205" on="0"/>
        <pt x="366" y="100" on="0"/>
        <pt x="367" y="52" on="1"/>
        <pt x="469" y="41" on="1"/>
        <pt x="469" y="0" on="1"/>
        <pt x="167" y="0" on="1"/>
        <pt x="167" y="41" on="1"/>
        <pt x="269" y="52" on="1"/>
        <pt x="270" y="99" on="0"/>
        <pt x="271" y="201" on="0"/>
        <pt x="271" y="259" on="1"/>
        <pt x="93" y="619" on="1"/>
        <pt x="15" y="628" on="1"/>
        <pt x="15" y="669" on="1"/>
        <pt x="297" y="669" on="1"/>
        <pt x="297" y="628" on="1"/>
        <pt x="202" y="617" on="1"/>
        <pt x="341" y="315" on="1"/>
        <pt x="484" y="616" on="1"/>
      </contour>
      <contour>
        <pt x="305" y="735" on="1"/>
        <pt x="351" y="784" on="0"/>
        <pt x="399" y="829" on="1"/>
        <pt x="420" y="850" on="0"/>
        <pt x="448" y="867" on="0"/>
        <pt x="461" y="867" on="1"/>
        <pt x="477" y="867" on="0"/>
        <pt x="499" y="848" on="0"/>
        <pt x="499" y="833" on="1"/>
        <pt x="499" y="820" on="0"/>
        <pt x="478" y="794" on="0"/>
        <pt x="449" y="778" on="1"/>
        <pt x="418" y="761" on="0"/>
        <pt x="355" y="727" on="0"/>
        <pt x="323" y="710" on="1"/>
      </contour>
    </TTGlyph>
    <TTGlyph name="cid00009" xMin="15" yMin="0" xMax="623" yMax="854">
      <contour>
        <pt x="394" y="628" on="1"/>
        <pt x="394" y="669" on="1"/>
        <pt x="623" y="669" on="1"/>
        <pt x="623" y="628" on="1"/>
        <pt x="535" y="615" on="1"/>
        <pt x="365" y="264" on="1"/>
        <pt x="365" y="205" on="0"/>
        <pt x="366" y="100" on="0"/>
        <pt x="367" y="52" on="1"/>
        <pt x="469" y="41" on="1"/>
        <pt x="469" y="0" on="1"/>
        <pt x="167" y="0" on="1"/>
        <pt x="167" y="41" on="1"/>
        <pt x="269" y="52" on="1"/>
        <pt x="270" y="99" on="0"/>
        <pt x="271" y="201" on="0"/>
        <pt x="271" y="259" on="1"/>
        <pt x="93" y="619" on="1"/>
        <pt x="15" y="628" on="1"/>
        <pt x="15" y="669" on="1"/>
        <pt x="297" y="669" on="1"/>
        <pt x="297" y="628" on="1"/>
        <pt x="202" y="617" on="1"/>
        <pt x="341" y="315" on="1"/>
        <pt x="484" y="616" on="1"/>
      </contour>
      <contour>
        <pt x="235" y="744" on="1"/>
        <pt x="212" y="744" on="0"/>
        <pt x="177" y="775" on="0"/>
        <pt x="177" y="799" on="1"/>
        <pt x="177" y="823" on="0"/>
        <pt x="212" y="854" on="0"/>
        <pt x="235" y="854" on="1"/>
        <pt x="259" y="854" on="0"/>
        <pt x="292" y="823" on="0"/>
        <pt x="292" y="799" on="1"/>
        <pt x="292" y="775" on="0"/>
        <pt x="259" y="744" on="0"/>
      </contour>
      <contour>
        <pt x="458" y="744" on="1"/>
        <pt x="434" y="744" on="0"/>
        <pt x="401" y="775" on="0"/>
        <pt x="401" y="799" on="1"/>
        <pt x="401" y="823" on="0"/>
        <pt x="434" y="854" on="0"/>
        <pt x="458" y="854" on="1"/>
        <pt x="481" y="854" on="0"/>
        <pt x="516" y="823" on="0"/>
        <pt x="516" y="799" on="1"/>
        <pt x="516" y="775" on="0"/>
        <pt x="481" y="744" on="0"/>
      </contour>
    </TTGlyph>
    <TTGlyph name="cid00010" xMin="45" yMin="-13" xMax="503" yMax="758">
      <contour>
        <pt x="45" y="112" on="1"/>
        <pt x="45" y="141" on="0"/>
        <pt x="72" y="191" on="0"/>
        <pt x="144" y="239" on="0"/>
        <pt x="211" y="263" on="1"/>
        <pt x="234" y="271" on="0"/>
        <pt x="294" y="289" on="0"/>
        <pt x="324" y="296" on="1"/>
        <pt x="324" y="321" on="1"/>
        <pt x="324" y="394" on="0"/>
        <pt x="280" y="442" on="0"/>
        <pt x="230" y="442" on="1"/>
        <pt x="219" y="442" on="0"/>
        <pt x="192" y="440" on="0"/>
        <pt x="176" y="436" on="1"/>
        <pt x="157" y="371" on="1"/>
        <pt x="143" y="323" on="0"/>
        <pt x="105" y="323" on="1"/>
        <pt x="63" y="323" on="0"/>
        <pt x="58" y="364" on="1"/>
        <pt x="72" y="421" on="0"/>
        <pt x="177" y="488" on="0"/>
        <pt x="253" y="488" on="1"/>
        <pt x="332" y="488" on="0"/>
        <pt x="408" y="409" on="0"/>
        <pt x="408" y="314" on="1"/>
        <pt x="408" y="101" on="1"/>
        <pt x="408" y="69" on="0"/>
        <pt x="428" y="42" on="0"/>
        <pt x="444" y="42" on="1"/>
        <pt x="457" y="42" on="0"/>
        <pt x="475" y="54" on="0"/>
        <pt x="483" y="64" on="1"/>
        <pt x="503" y="42" on="1"/>
        <pt x="485" y="13" on="0"/>
        <pt x="442" y="-10" on="0"/>
        <pt x="416" y="-10" on="1"/>
        <pt x="380" y="-10" on="0"/>
        <pt x="333" y="31" on="0"/>
        <pt x="326" y="67" on="1"/>
        <pt x="285" y="27" on="0"/>
        <pt x="223" y="-13" on="0"/>
        <pt x="179" y="-13" on="1"/>
        <pt x="124" y="-13" on="0"/>
        <pt x="45" y="50" on="0"/>
      </contour>
      <contour>
        <pt x="134" y="127" on="1"/>
        <pt x="134" y="87" on="0"/>
        <pt x="180" y="53" on="0"/>
        <pt x="214" y="53" on="1"/>
        <pt x="231" y="53" on="0"/>
        <pt x="259" y="62" on="0"/>
        <pt x="296" y="86" on="0"/>
        <pt x="324" y="106" on="1"/>
        <pt x="324" y="258" on="1"/>
        <pt x="298" y="251" on="0"/>
        <pt x="248" y="235" on="0"/>
        <pt x="232" y="229" on="1"/>
        <pt x="189" y="212" on="0"/>
        <pt x="147" y="176" on="0"/>
        <pt x="134" y="142" on="0"/>
      </contour>
      <contour>
        <pt x="219" y="576" on="1"/>
        <pt x="261" y="647" on="0"/>
        <pt x="308" y="717" on="1"/>
        <pt x="322" y="740" on="0"/>
        <pt x="349" y="758" on="0"/>
        <pt x="362" y="758" on="1"/>
        <pt x="376" y="758" on="0"/>
        <pt x="400" y="740" on="0"/>
        <pt x="400" y="720" on="1"/>
        <pt x="400" y="710" on="0"/>
        <pt x="387" y="685" on="0"/>
        <pt x="366" y="665" on="1"/>
        <pt x="335" y="637" on="0"/>
        <pt x="276" y="584" on="0"/>
        <pt x="245" y="557" on="1"/>
      </contour>
    </TTGlyph>
    <TTGlyph name="cid00011" xMin="45" yMin="-13" xMax="503" yMax="710">
      <contour>
        <pt x="45" y="112" on="1"/>
        <pt x="45" y="141" on="0"/>
        <pt x="72" y="191" on="0"/>
        <pt x="144" y="239" on="0"/>
        <pt x="211" y="263" on="1"/>
        <pt x="234" y="271" on="0"/>
        <pt x="294" y="289" on="0"/>
        <pt x="324" y="296" on="1"/>
        <pt x="324" y="321" on="1"/>
        <pt x="324" y="394" on="0"/>
        <pt x="280" y="442" on="0"/>
        <pt x="230" y="442" on="1"/>
        <pt x="219" y="442" on="0"/>
        <pt x="192" y="440" on="0"/>
        <pt x="176" y="436" on="1"/>
        <pt x="157" y="371" on="1"/>
        <pt x="143" y="323" on="0"/>
        <pt x="105" y="323" on="1"/>
        <pt x="63" y="323" on="0"/>
        <pt x="58" y="364" on="1"/>
        <pt x="72" y="421" on="0"/>
        <pt x="177" y="488" on="0"/>
        <pt x="253" y="488" on="1"/>
        <pt x="332" y="488" on="0"/>
        <pt x="408" y="409" on="0"/>
        <pt x="408" y="314" on="1"/>
        <pt x="408" y="101" on="1"/>
        <pt x="408" y="69" on="0"/>
        <pt x="428" y="42" on="0"/>
        <pt x="444" y="42" on="1"/>
        <pt x="457" y="42" on="0"/>
        <pt x="475" y="54" on="0"/>
        <pt x="483" y="64" on="1"/>
        <pt x="503" y="42" on="1"/>
        <pt x="485" y="13" on="0"/>
        <pt x="442" y="-10" on="0"/>
        <pt x="416" y="-10" on="1"/>
        <pt x="380" y="-10" on="0"/>
        <pt x="333" y="31" on="0"/>
        <pt x="326" y="67" on="1"/>
        <pt x="285" y="27" on="0"/>
        <pt x="223" y="-13" on="0"/>
        <pt x="179" y="-13" on="1"/>
        <pt x="124" y="-13" on="0"/>
        <pt x="45" y="50" on="0"/>
      </contour>
      <contour>
        <pt x="134" y="127" on="1"/>
        <pt x="134" y="87" on="0"/>
        <pt x="180" y="53" on="0"/>
        <pt x="214" y="53" on="1"/>
        <pt x="231" y="53" on="0"/>
        <pt x="259" y="62" on="0"/>
        <pt x="296" y="86" on="0"/>
        <pt x="324" y="106" on="1"/>
        <pt x="324" y="258" on="1"/>
        <pt x="298" y="251" on="0"/>
        <pt x="248" y="235" on="0"/>
        <pt x="232" y="229" on="1"/>
        <pt x="189" y="212" on="0"/>
        <pt x="147" y="176" on="0"/>
        <pt x="134" y="142" on="0"/>
      </contour>
      <contour>
        <pt x="355" y="596" on="1"/>
        <pt x="330" y="596" on="0"/>
        <pt x="295" y="628" on="0"/>
        <pt x="295" y="653" on="1"/>
        <pt x="295" y="677" on="0"/>
        <pt x="330" y="710" on="0"/>
        <pt x="355" y="710" on="1"/>
        <pt x="379" y="710" on="0"/>
        <pt x="414" y="677" on="0"/>
        <pt x="414" y="653" on="1"/>
        <pt x="414" y="628" on="0"/>
        <pt x="379" y="596" on="0"/>
      </contour>
      <contour>
        <pt x="145" y="596" on="1"/>
        <pt x="121" y="596" on="0"/>
        <pt x="86" y="628" on="0"/>
        <pt x="86" y="653" on="1"/>
        <pt x="86" y="677" on="0"/>
        <pt x="121" y="710" on="0"/>
        <pt x="145" y="710" on="1"/>
        <pt x="170" y="710" on="0"/>
        <pt x="205" y="677" on="0"/>
        <pt x="205" y="653" on="1"/>
        <pt x="205" y="628" on="0"/>
        <pt x="170" y="596" on="0"/>
      </contour>
    </TTGlyph>
    <TTGlyph name="cid00012" xMin="45" yMin="-13" xMax="503" yMax="715">
      <contour>
        <pt x="45" y="112" on="1"/>
        <pt x="45" y="141" on="0"/>
        <pt x="72" y="191" on="0"/>
        <pt x="144" y="239" on="0"/>
        <pt x="211" y="263" on="1"/>
        <pt x="234" y="271" on="0"/>
        <pt x="294" y="289" on="0"/>
        <pt x="324" y="296" on="1"/>
        <pt x="324" y="321" on="1"/>
        <pt x="324" y="394" on="0"/>
        <pt x="280" y="442" on="0"/>
        <pt x="230" y="442" on="1"/>
        <pt x="219" y="442" on="0"/>
        <pt x="192" y="440" on="0"/>
        <pt x="176" y="436" on="1"/>
        <pt x="157" y="371" on="1"/>
        <pt x="143" y="323" on="0"/>
        <pt x="105" y="323" on="1"/>
        <pt x="63" y="323" on="0"/>
        <pt x="58" y="364" on="1"/>
        <pt x="72" y="421" on="0"/>
        <pt x="177" y="488" on="0"/>
        <pt x="253" y="488" on="1"/>
        <pt x="332" y="488" on="0"/>
        <pt x="408" y="409" on="0"/>
        <pt x="408" y="314" on="1"/>
        <pt x="408" y="101" on="1"/>
        <pt x="408" y="69" on="0"/>
        <pt x="428" y="42" on="0"/>
        <pt x="444" y="42" on="1"/>
        <pt x="457" y="42" on="0"/>
        <pt x="475" y="54" on="0"/>
        <pt x="483" y="64" on="1"/>
        <pt x="503" y="42" on="1"/>
        <pt x="485" y="13" on="0"/>
        <pt x="442" y="-10" on="0"/>
        <pt x="416" y="-10" on="1"/>
        <pt x="380" y="-10" on="0"/>
        <pt x="333" y="31" on="0"/>
        <pt x="326" y="67" on="1"/>
        <pt x="285" y="27" on="0"/>
        <pt x="223" y="-13" on="0"/>
        <pt x="179" y="-13" on="1"/>
        <pt x="124" y="-13" on="0"/>
        <pt x="45" y="50" on="0"/>
      </contour>
      <contour>
        <pt x="134" y="127" on="1"/>
        <pt x="134" y="87" on="0"/>
        <pt x="180" y="53" on="0"/>
        <pt x="214" y="53" on="1"/>
        <pt x="231" y="53" on="0"/>
        <pt x="259" y="62" on="0"/>
        <pt x="296" y="86" on="0"/>
        <pt x="324" y="106" on="1"/>
        <pt x="324" y="258" on="1"/>
        <pt x="298" y="251" on="0"/>
        <pt x="248" y="235" on="0"/>
        <pt x="232" y="229" on="1"/>
        <pt x="189" y="212" on="0"/>
        <pt x="147" y="176" on="0"/>
        <pt x="134" y="142" on="0"/>
      </contour>
      <contour>
        <pt x="80" y="586" on="1"/>
        <pt x="88" y="645" on="0"/>
        <pt x="134" y="715" on="0"/>
        <pt x="175" y="715" on="1"/>
        <pt x="200" y="715" on="0"/>
        <pt x="233" y="695" on="0"/>
        <pt x="248" y="681" on="1"/>
        <pt x="265" y="666" on="0"/>
        <pt x="297" y="633" on="0"/>
        <pt x="317" y="633" on="1"/>
        <pt x="340" y="633" on="0"/>
        <pt x="369" y="676" on="0"/>
        <pt x="379" y="713" on="1"/>
        <pt x="406" y="703" on="1"/>
        <pt x="397" y="645" on="0"/>
        <pt x="353" y="575" on="0"/>
        <pt x="311" y="575" on="1"/>
        <pt x="286" y="575" on="0"/>
        <pt x="252" y="595" on="0"/>
        <pt x="238" y="608" on="1"/>
        <pt x="221" y="624" on="0"/>
        <pt x="189" y="656" on="0"/>
        <pt x="169" y="656" on="1"/>
        <pt x="147" y="656" on="0"/>
        <pt x="118" y="614" on="0"/>
        <pt x="107" y="577" on="1"/>
      </contour>
    </TTGlyph>
    <TTGlyph name="cid00013" xMin="0" yMin="-249" xMax="512" yMax="758">
      <contour>
        <pt x="92" y="-249" on="1"/>
        <pt x="55" y="-249" on="0"/>
        <pt x="0" y="-212" on="0"/>
        <pt x="0" y="-183" on="1"/>
        <pt x="5" y="-161" on="0"/>
        <pt x="44" y="-139" on="0"/>
        <pt x="67" y="-139" on="1"/>
        <pt x="87" y="-139" on="0"/>
        <pt x="121" y="-156" on="0"/>
        <pt x="141" y="-177" on="1"/>
        <pt x="146" y="-182" on="1"/>
        <pt x="178" y="-155" on="0"/>
        <pt x="222" y="-78" on="0"/>
        <pt x="236" y="-38" on="1"/>
        <pt x="241" y="-26" on="1"/>
        <pt x="58" y="431" on="1"/>
        <pt x="4" y="439" on="1"/>
        <pt x="4" y="475" on="1"/>
        <pt x="244" y="475" on="1"/>
        <pt x="244" y="438" on="1"/>
        <pt x="156" y="428" on="1"/>
        <pt x="281" y="87" on="1"/>
        <pt x="404" y="427" on="1"/>
        <pt x="317" y="439" on="1"/>
        <pt x="317" y="475" on="1"/>
        <pt x="512" y="475" on="1"/>
        <pt x="512" y="439" on="1"/>
        <pt x="458" y="428" on="1"/>
        <pt x="297" y="3" on="1"/>
        <pt x="247" y="-130" on="0"/>
        <pt x="154" y="-249" on="0"/>
      </contour>
      <contour>
        <pt x="247" y="576" on="1"/>
        <pt x="289" y="647" on="0"/>
        <pt x="336" y="717" on="1"/>
        <pt x="350" y="740" on="0"/>
        <pt x="377" y="758" on="0"/>
        <pt x="390" y="758" on="1"/>
        <pt x="404" y="758" on="0"/>
        <pt x="428" y="740" on="0"/>
        <pt x="428" y="720" on="1"/>
        <pt x="428" y="710" on="0"/>
        <pt x="415" y="685" on="0"/>
        <pt x="394" y="665" on="1"/>
        <pt x="363" y="637" on="0"/>
        <pt x="304" y="584" on="0"/>
        <pt x="273" y="557" on="1"/>
      </contour>
    </TTGlyph>
    <TTGlyph name="cid00014" xMin="0" yMin="-249" xMax="512" yMax="710">
      <contour>
        <pt x="92" y="-249" on="1"/>
        <pt x="55" y="-249" on="0"/>
        <pt x="0" y="-212" on="0"/>
        <pt x="0" y="-183" on="1"/>
        <pt x="5" y="-161" on="0"/>
        <pt x="44" y="-139" on="0"/>
        <pt x="67" y="-139" on="1"/>
        <pt x="87" y="-139" on="0"/>
        <pt x="121" y="-156" on="0"/>
        <pt x="141" y="-177" on="1"/>
        <pt x="146" y="-182" on="1"/>
        <pt x="178" y="-155" on="0"/>
        <pt x="222" y="-78" on="0"/>
        <pt x="236" y="-38" on="1"/>
        <pt x="241" y="-26" on="1"/>
        <pt x="58" y="431" on="1"/>
        <pt x="4" y="439" on="1"/>
        <pt x="4" y="475" on="1"/>
        <pt x="244" y="475" on="1"/>
        <pt x="244" y="438" on="1"/>
        <pt x="156" y="428" on="1"/>
        <pt x="281" y="87" on="1"/>
        <pt x="404" y="427" on="1"/>
        <pt x="317" y="439" on="1"/>
        <pt x="317" y="475" on="1"/>
        <pt x="512" y="475" on="1"/>
        <pt x="512" y="439" on="1"/>
        <pt x="458" y="428" on="1"/>
        <pt x="297" y="3" on="1"/>
        <pt x="247" y="-130" on="0"/>
        <pt x="154" y="-249" on="0"/>
      </contour>
      <contour>
        <pt x="389" y="596" on="1"/>
        <pt x="364" y="596" on="0"/>
        <pt x="329" y="628" on="0"/>
        <pt x="329" y="653" on="1"/>
        <pt x="329" y="677" on="0"/>
        <pt x="364" y="710" on="0"/>
        <pt x="389" y="710" on="1"/>
        <pt x="413" y="710" on="0"/>
        <pt x="448" y="677" on="0"/>
        <pt x="448" y="653" on="1"/>
        <pt x="448" y="628" on="0"/>
        <pt x="413" y="596" on="0"/>
      </contour>
      <contour>
        <pt x="179" y="596" on="1"/>
        <pt x="155" y="596" on="0"/>
        <pt x="120" y="628" on="0"/>
        <pt x="120" y="653" on="1"/>
        <pt x="120" y="677" on="0"/>
        <pt x="155" y="710" on="0"/>
        <pt x="179" y="710" on="1"/>
        <pt x="204" y="710" on="0"/>
        <pt x="239" y="677" on="0"/>
        <pt x="239" y="653" on="1"/>
        <pt x="239" y="628" on="0"/>
        <pt x="204" y="596" on="0"/>
      </contour>
    </TTGlyph>
    <TTGlyph name="cid00015" xMin="15" yMin="0" xMax="623" yMax="863">
      <contour>
        <pt x="394" y="628" on="1"/>
        <pt x="394" y="669" on="1"/>
        <pt x="623" y="669" on="1"/>
        <pt x="623" y="628" on="1"/>
        <pt x="535" y="615" on="1"/>
        <pt x="365" y="264" on="1"/>
        <pt x="365" y="205" on="0"/>
        <pt x="366" y="100" on="0"/>
        <pt x="367" y="52" on="1"/>
        <pt x="469" y="41" on="1"/>
        <pt x="469" y="0" on="1"/>
        <pt x="167" y="0" on="1"/>
        <pt x="167" y="41" on="1"/>
        <pt x="269" y="52" on="1"/>
        <pt x="270" y="99" on="0"/>
        <pt x="271" y="201" on="0"/>
        <pt x="271" y="259" on="1"/>
        <pt x="93" y="619" on="1"/>
        <pt x="15" y="628" on="1"/>
        <pt x="15" y="669" on="1"/>
        <pt x="297" y="669" on="1"/>
        <pt x="297" y="628" on="1"/>
        <pt x="202" y="617" on="1"/>
        <pt x="341" y="315" on="1"/>
        <pt x="484" y="616" on="1"/>
      </contour>
      <contour>
        <pt x="166" y="734" on="1"/>
        <pt x="175" y="793" on="0"/>
        <pt x="225" y="863" on="0"/>
        <pt x="271" y="863" on="1"/>
        <pt x="298" y="863" on="0"/>
        <pt x="335" y="843" on="0"/>
        <pt x="352" y="829" on="1"/>
        <pt x="371" y="814" on="0"/>
        <pt x="406" y="781" on="0"/>
        <pt x="428" y="781" on="1"/>
        <pt x="453" y="781" on="0"/>
        <pt x="485" y="824" on="0"/>
        <pt x="496" y="861" on="1"/>
        <pt x="526" y="851" on="1"/>
        <pt x="516" y="793" on="0"/>
        <pt x="468" y="723" on="0"/>
        <pt x="422" y="723" on="1"/>
        <pt x="394" y="723" on="0"/>
        <pt x="357" y="743" on="0"/>
        <pt x="340" y="756" on="1"/>
        <pt x="321" y="772" on="0"/>
        <pt x="287" y="804" on="0"/>
        <pt x="264" y="804" on="1"/>
        <pt x="240" y="804" on="0"/>
        <pt x="207" y="762" on="0"/>
        <pt x="196" y="725" on="1"/>
      </contour>
    </TTGlyph>
    <TTGlyph name="cid00016" xMin="0" yMin="-249" xMax="512" yMax="715">
      <contour>
        <pt x="92" y="-249" on="1"/>
        <pt x="55" y="-249" on="0"/>
        <pt x="0" y="-212" on="0"/>
        <pt x="0" y="-183" on="1"/>
        <pt x="5" y="-161" on="0"/>
        <pt x="44" y="-139" on="0"/>
        <pt x="67" y="-139" on="1"/>
        <pt x="87" y="-139" on="0"/>
        <pt x="121" y="-156" on="0"/>
        <pt x="141" y="-177" on="1"/>
        <pt x="146" y="-182" on="1"/>
        <pt x="178" y="-155" on="0"/>
        <pt x="222" y="-78" on="0"/>
        <pt x="236" y="-38" on="1"/>
        <pt x="241" y="-26" on="1"/>
        <pt x="58" y="431" on="1"/>
        <pt x="4" y="439" on="1"/>
        <pt x="4" y="475" on="1"/>
        <pt x="244" y="475" on="1"/>
        <pt x="244" y="438" on="1"/>
        <pt x="156" y="428" on="1"/>
        <pt x="281" y="87" on="1"/>
        <pt x="404" y="427" on="1"/>
        <pt x="317" y="439" on="1"/>
        <pt x="317" y="475" on="1"/>
        <pt x="512" y="475" on="1"/>
        <pt x="512" y="439" on="1"/>
        <pt x="458" y="428" on="1"/>
        <pt x="297" y="3" on="1"/>
        <pt x="247" y="-130" on="0"/>
        <pt x="154" y="-249" on="0"/>
      </contour>
      <contour>
        <pt x="111" y="586" on="1"/>
        <pt x="119" y="645" on="0"/>
        <pt x="165" y="715" on="0"/>
        <pt x="206" y="715" on="1"/>
        <pt x="231" y="715" on="0"/>
        <pt x="264" y="695" on="0"/>
        <pt x="279" y="681" on="1"/>
        <pt x="296" y="666" on="0"/>
        <pt x="328" y="633" on="0"/>
        <pt x="348" y="633" on="1"/>
        <pt x="371" y="633" on="0"/>
        <pt x="400" y="676" on="0"/>
        <pt x="410" y="713" on="1"/>
        <pt x="437" y="703" on="1"/>
        <pt x="428" y="645" on="0"/>
        <pt x="384" y="575" on="0"/>
        <pt x="342" y="575" on="1"/>
        <pt x="317" y="575" on="0"/>
        <pt x="283" y="595" on="0"/>
        <pt x="269" y="608" on="1"/>
        <pt x="252" y="624" on="0"/>
        <pt x="220" y="656" on="0"/>
        <pt x="200" y="656" on="1"/>
        <pt x="178" y="656" on="0"/>
        <pt x="149" y="614" on="0"/>
        <pt x="138" y="577" on="1"/>
      </contour>
    </TTGlyph>
    <TTGlyph name="cid00017" xMin="-59" yMin="557" xMax="122" yMax="758">
      <contour>
        <pt x="-59" y="576" on="1"/>
        <pt x="-17" y="647" on="0"/>
        <pt x="30" y="717" on="1"/>
        <pt x="44" y="740" on="0"/>
        <pt x="71" y="758" on="0"/>
        <pt x="84" y="758" on="1"/>
        <pt x="98" y="758" on="0"/>
        <pt x="122" y="740" on="0"/>
        <pt x="122" y="720" on="1"/>
        <pt x="122" y="710" on="0"/>
        <pt x="109" y="685" on="0"/>
        <pt x="88" y="665" on="1"/>
        <pt x="57" y="637" on="0"/>
        <pt x="-2" y="584" on="0"/>
        <pt x="-33" y="557" on="1"/>
      </contour>
    </TTGlyph>
    <TTGlyph name="cid00018" xMin="-67" yMin="720" xMax="127" yMax="877">
      <contour>
        <pt x="-67" y="745" on="1"/>
        <pt x="-21" y="794" on="0"/>
        <pt x="27" y="839" on="1"/>
        <pt x="48" y="860" on="0"/>
        <pt x="76" y="877" on="0"/>
        <pt x="89" y="877" on="1"/>
        <pt x="105" y="877" on="0"/>
        <pt x="127" y="858" on="0"/>
        <pt x="127" y="843" on="1"/>
        <pt x="127" y="830" on="0"/>
        <pt x="106" y="804" on="0"/>
        <pt x="77" y="788" on="1"/>
        <pt x="46" y="771" on="0"/>
        <pt x="-17" y="737" on="0"/>
        <pt x="-49" y="720" on="1"/>
      </contour>
    </TTGlyph>
    <TTGlyph name="cid00019" xMin="-164" yMin="596" xMax="164" yMax="710">
      <contour>
        <pt x="105" y="596" on="1"/>
        <pt x="80" y="596" on="0"/>
        <pt x="45" y="628" on="0"/>
        <pt x="45" y="653" on="1"/>
        <pt x="45" y="677" on="0"/>
        <pt x="80" y="710" on="0"/>
        <pt x="105" y="710" on="1"/>
        <pt x="129" y="710" on="0"/>
        <pt x="164" y="677" on="0"/>
        <pt x="164" y="653" on="1"/>
        <pt x="164" y="628" on="0"/>
        <pt x="129" y="596" on="0"/>
      </contour>
      <contour>
        <pt x="-105" y="596" on="1"/>
        <pt x="-129" y="596" on="0"/>
        <pt x="-164" y="628" on="0"/>
        <pt x="-164" y="653" on="1"/>
        <pt x="-164" y="677" on="0"/>
        <pt x="-129" y="710" on="0"/>
        <pt x="-105" y="710" on="1"/>
        <pt x="-80" y="710" on="0"/>
        <pt x="-45" y="677" on="0"/>
        <pt x="-45" y="653" on="1"/>
        <pt x="-45" y="628" on="0"/>
        <pt x="-80" y="596" on="0"/>
      </contour>
    </TTGlyph>
    <TTGlyph name="cid00020" xMin="-170" yMin="744" xMax="169" yMax="854">
      <contour>
        <pt x="-112" y="744" on="1"/>
        <pt x="-135" y="744" on="0"/>
        <pt x="-170" y="775" on="0"/>
        <pt x="-170" y="799" on="1"/>
        <pt x="-170" y="823" on="0"/>
        <pt x="-135" y="854" on="0"/>
        <pt x="-112" y="854" on="1"/>
        <pt x="-88" y="854" on="0"/>
        <pt x="-55" y="823" on="0"/>
        <pt x="-55" y="799" on="1"/>
        <pt x="-55" y="775" on="0"/>
        <pt x="-88" y="744" on="0"/>
      </contour>
      <contour>
        <pt x="111" y="744" on="1"/>
        <pt x="87" y="744" on="0"/>
        <pt x="54" y="775" on="0"/>
        <pt x="54" y="799" on="1"/>
        <pt x="54" y="823" on="0"/>
        <pt x="87" y="854" on="0"/>
        <pt x="111" y="854" on="1"/>
        <pt x="134" y="854" on="0"/>
        <pt x="169" y="823" on="0"/>
        <pt x="169" y="799" on="1"/>
        <pt x="169" y="775" on="0"/>
        <pt x="134" y="744" on="0"/>
      </contour>
    </TTGlyph>
    <TTGlyph name="cid00021" xMin="-163" yMin="575" xMax="163" yMax="715">
      <contour>
        <pt x="-163" y="586" on="1"/>
        <pt x="-155" y="645" on="0"/>
        <pt x="-109" y="715" on="0"/>
        <pt x="-68" y="715" on="1"/>
        <pt x="-43" y="715" on="0"/>
        <pt x="-10" y="695" on="0"/>
        <pt x="5" y="681" on="1"/>
        <pt x="22" y="666" on="0"/>
        <pt x="54" y="633" on="0"/>
        <pt x="74" y="633" on="1"/>
        <pt x="97" y="633" on="0"/>
        <pt x="126" y="676" on="0"/>
        <pt x="136" y="713" on="1"/>
        <pt x="163" y="703" on="1"/>
        <pt x="154" y="645" on="0"/>
        <pt x="110" y="575" on="0"/>
        <pt x="68" y="575" on="1"/>
        <pt x="43" y="575" on="0"/>
        <pt x="9" y="595" on="0"/>
        <pt x="-5" y="608" on="1"/>
        <pt x="-22" y="624" on="0"/>
        <pt x="-54" y="656" on="0"/>
        <pt x="-74" y="656" on="1"/>
        <pt x="-96" y="656" on="0"/>
        <pt x="-125" y="614" on="0"/>
        <pt x="-136" y="577" on="1"/>
      </contour>
    </TTGlyph>
    <TTGlyph name="cid00022" xMin="-180" yMin="723" xMax="180" yMax="863">
      <contour>
        <pt x="-180" y="734" on="1"/>
        <pt x="-171" y="793" on="0"/>
        <pt x="-121" y="863" on="0"/>
        <pt x="-75" y="863" on="1"/>
        <pt x="-48" y="863" on="0"/>
        <pt x="-11" y="843" on="0"/>
        <pt x="6" y="829" on="1"/>
        <pt x="25" y="814" on="0"/>
        <pt x="60" y="781" on="0"/>
        <pt x="82" y="781" on="1"/>
        <pt x="107" y="781" on="0"/>
        <pt x="139" y="824" on="0"/>
        <pt x="150" y="861" on="1"/>
        <pt x="180" y="851" on="1"/>
        <pt x="170" y="793" on="0"/>
        <pt x="122" y="723" on="0"/>
        <pt x="76" y="723" on="1"/>
        <pt x="48" y="723" on="0"/>
        <pt x="11" y="743" on="0"/>
        <pt x="-6" y="756" on="1"/>
        <pt x="-25" y="772" on="0"/>
        <pt x="-59" y="804" on="0"/>
        <pt x="-82" y="804" on="1"/>
        <pt x="-106" y="804" on="0"/>
        <pt x="-139" y="762" on="0"/>
        <pt x="-150" y="725" on="1"/>
      </contour>
    </TTGlyph>
</ttFont>
